<svg xmlns="http://www.w3.org/2000/svg" width="24" height="24" viewBox="0 0 24 24">
  <path id="ic_Task_List" data-name="ic_Task List" d="M14.309,15.769,23.858,3.657a1.2,1.2,0,0,1,1.885,1.486l-10.407,13.2a1.2,1.2,0,0,1-1.812.084L8.33,12.961a1.2,1.2,0,1,1,1.74-1.653ZM23.6,12.92a1.2,1.2,0,1,1,2.4,0v8.64A4.44,4.44,0,0,1,21.56,26H6.44A4.44,4.44,0,0,1,2,21.56V6.44A4.44,4.44,0,0,1,6.44,2H19.28a1.2,1.2,0,0,1,0,2.4H6.44A2.04,2.04,0,0,0,4.4,6.44V21.56A2.04,2.04,0,0,0,6.44,23.6H21.56a2.04,2.04,0,0,0,2.04-2.04Z" transform="translate(-2 -2)" fill="#fff"/>
</svg>
